<?xml version="1.0" encoding="UTF-8"?>
<svg version="1.1" xmlns="http://www.w3.org/2000/svg" width="129" height="116">
<path d="M0 0 C42.57 0 85.14 0 129 0 C129 38.28 129 76.56 129 116 C86.43 116 43.86 116 0 116 C0 77.72 0 39.44 0 0 Z " fill="#050505" transform="translate(0,0)"/>
<path d="M0 0 C3.78497178 2.58066258 6.22883058 5.21065428 7.1328125 9.83203125 C7.42454196 14.91784821 6.12702045 17.95035461 2.75 21.875 C-1.06490632 25.24109381 -4.89787995 25.43983276 -9.80859375 25.30078125 C-13.82740917 24.59989984 -15.49541299 22.83618104 -18.25 19.875 C-20.9479409 15.82808865 -20.90804393 12.62753951 -20.25 7.875 C-15.89445696 -0.83608609 -8.99296854 -3.11295065 0 0 Z " fill="#CACACA" transform="translate(105.25,44.125)"/>
<path d="M0 0 C14.1 0 14.1 0 18.8125 3.25 C20.64200211 5.94610837 20.45351866 7.82536935 20 11 C18.125 13.375 18.125 13.375 16 15 C15.34 15 14.68 15 14 15 C14.5053125 15.71027344 15.010625 16.42054687 15.53125 17.15234375 C16.1809375 18.07144531 16.830625 18.99054687 17.5 19.9375 C18.1496875 20.85402344 18.799375 21.77054688 19.46875 22.71484375 C21 25 21 25 21 26 C17.875 26.5 17.875 26.5 14 26 C11.57047394 23.59682455 9.7737836 20.91082436 8 18 C7.67 20.64 7.34 23.28 7 26 C4.69 26 2.38 26 0 26 C0 17.42 0 8.84 0 0 Z " fill="#C4C4C4" transform="translate(64,43)"/>
<path d="M0 0 C6.27 0 12.54 0 19 0 C19 1.98 19 3.96 19 6 C15.04 6 11.08 6 7 6 C7 7.32 7 8.64 7 10 C10.63 10 14.26 10 18 10 C18 11.98 18 13.96 18 16 C14.04 16 10.08 16 6 16 C6 17.65 6 19.3 6 21 C10.29 21 14.58 21 19 21 C19 22.65 19 24.3 19 26 C12.73 26 6.46 26 0 26 C0 17.42 0 8.84 0 0 Z " fill="#C2C2C2" transform="translate(43,43)"/>
<path d="M0 0 C2.31 0 4.62 0 7 0 C8.31905326 3.39332391 9.62907401 6.79006569 10.9375 10.1875 C11.49727539 11.62706055 11.49727539 11.62706055 12.06835938 13.09570312 C12.42607422 14.02705078 12.78378906 14.95839844 13.15234375 15.91796875 C13.48226318 16.77156982 13.81218262 17.6251709 14.15209961 18.50463867 C14.99682622 20.99065961 15.54485975 23.41682623 16 26 C13.69 26 11.38 26 9 26 C9 24.68 9 23.36 9 22 C5.37 22 1.74 22 -2 22 C-2.33 23.32 -2.66 24.64 -3 26 C-4.98 26 -6.96 26 -9 26 C-8.39920099 21.56076288 -7.27338054 17.72341209 -5.625 13.5625 C-5.18027344 12.43585937 -4.73554688 11.30921875 -4.27734375 10.1484375 C-2.89604386 6.74376561 -1.48493794 3.36064902 0 0 Z " fill="#C2C2C2" transform="translate(26,43)"/>
<path d="M0 0 C31.68 0 63.36 0 96 0 C96 0.99 96 1.98 96 3 C64.32 3 32.64 3 0 3 C0 2.01 0 1.02 0 0 Z " fill="#B3B3B3" transform="translate(16,71)"/>
<path d="M0 0 C2.17016137 1.59379057 2.89935753 2.49950773 3.43359375 5.15625 C3.44399361 11.39616868 3.44399361 11.39616868 1.4375 14.125 C-2.01839875 15.36557904 -4.47201523 14.84932967 -8 14 C-10.41486943 11.58513057 -10.2961925 10.87292211 -10.3125 7.5625 C-10.32925781 6.78003906 -10.34601563 5.99757813 -10.36328125 5.19140625 C-9.3977312 -0.63304081 -5.09917213 -0.54633987 0 0 Z " fill="#0B0B0B" transform="translate(102,49)"/>
<path d="M0 0 C0 5.28 0 10.56 0 16 C-4.95 16 -9.9 16 -15 16 C-15 14.35 -15 12.7 -15 11 C-11.04 11 -7.08 11 -3 11 C-3 9.02 -3 7.04 -3 5 C-6.63 5 -10.26 5 -14 5 C-14 3.68 -14 2.36 -14 1 C-11.85420251 0.83287252 -9.70836101 0.66631 -7.5625 0.5 C-5.77005859 0.36078125 -5.77005859 0.36078125 -3.94140625 0.21875 C-1 0 -1 0 0 0 Z " fill="#0F0F0F" transform="translate(64,48)"/>
<path d="M0 0 C1.65 0 3.3 0 5 0 C5.38218767 1.65614657 5.71395102 3.32457024 6 5 C5 6 5 6 2.4375 6.0625 C1.2309375 6.0315625 1.2309375 6.0315625 0 6 C0 4.02 0 2.04 0 0 Z " fill="#0B0B0B" transform="translate(71,48)"/>
<path d="M0 0 C3 3.625 3 3.625 3 7 C1.35 7 -0.3 7 -2 7 C-1.125 1.125 -1.125 1.125 0 0 Z " fill="#1E1E1E" transform="translate(29,52)"/>
</svg>
